<svg width="93" height="100" viewBox="0 0 93 100" fill="none" xmlns="http://www.w3.org/2000/svg">
<g filter="url(#filter0_i_23_399)">
<path d="M43.507 53.104C43.507 57.617 47.158 61.269 51.67 61.269C56.183 61.269 59.834 57.617 59.834 53.104C59.834 48.593 56.183 44.941 51.67 44.941C47.158 44.941 43.507 48.594 43.507 53.104Z" fill="#F2F2F7"/>
<path d="M88.1 42.3909C83.439 26.209 68.526 14.325 50.868 14.325C33.145 14.325 18.181 26.291 13.577 42.56C12.244 48.908 16.293 49.8829 16.678 49.8829H31.14C36.17 49.8829 38.732 46.365 39.126 45.778C41.648 41.4629 46.358 38.4959 51.671 38.4959C56.95 38.4959 61.572 41.42 64.124 45.688L64.129 45.658C64.129 45.658 66.711 49.8839 72.196 49.8839H85.025C85.412 49.8829 89.553 48.9059 88.1 42.3909Z" fill="#424242"/>
<path d="M88.091 63.632C89.218 58.689 87.143 56.909 85.874 56.328H71.272C67.233 56.703 64.962 59.31 64.334 60.175C61.823 64.627 56.979 67.715 51.563 67.715C46.027 67.715 41.23 64.487 38.77 59.874C37.91 58.808 35.699 56.665 32.062 56.328H15.828C14.558 56.909 12.484 58.688 13.611 63.632C13.633 63.736 13.643 63.812 13.664 63.909C18.352 80.046 33.241 91.887 50.867 91.887C68.41 91.887 83.232 80.154 87.997 64.134C88.028 63.965 88.047 63.819 88.091 63.632Z" fill="#F2F2F7"/>
</g>
<defs>
<filter id="filter0_i_23_399" x="0" y="0" width="100" height="104" filterUnits="userSpaceOnUse" color-interpolation-filters="sRGB">
<feFlood flood-opacity="0" result="BackgroundImageFix"/>
<feBlend mode="normal" in="SourceGraphic" in2="BackgroundImageFix" result="shape"/>
<feColorMatrix in="SourceAlpha" type="matrix" values="0 0 0 0 0 0 0 0 0 0 0 0 0 0 0 0 0 0 127 0" result="hardAlpha"/>
<feOffset dy="4"/>
<feGaussianBlur stdDeviation="2"/>
<feComposite in2="hardAlpha" operator="arithmetic" k2="-1" k3="1"/>
<feColorMatrix type="matrix" values="0 0 0 0 0 0 0 0 0 0 0 0 0 0 0 0 0 0 0.25 0"/>
<feBlend mode="normal" in2="shape" result="effect1_innerShadow_23_399"/>
</filter>
</defs>
</svg>
