<svg width="100" height="107" viewBox="0 0 100 107" fill="none" xmlns="http://www.w3.org/2000/svg">
<g filter="url(#filter0_i_23_398)">
<path d="M43.507 53.104C43.507 57.617 47.158 61.269 51.67 61.269C56.183 61.269 59.834 57.617 59.834 53.104C59.834 48.593 56.183 44.941 51.67 44.941C47.158 44.941 43.507 48.594 43.507 53.104Z" fill="#F2F2F7"/>
<path d="M88.1 42.3909C83.439 26.209 68.526 14.325 50.868 14.325C33.145 14.325 18.181 26.291 13.577 42.56C12.244 48.908 16.293 49.8829 16.678 49.8829H31.14C36.17 49.8829 38.732 46.365 39.126 45.778C41.648 41.4629 46.358 38.4959 51.671 38.4959C56.95 38.4959 61.572 41.42 64.124 45.688L64.129 45.658C64.129 45.658 66.711 49.8839 72.196 49.8839H85.025C85.412 49.8829 89.553 48.9059 88.1 42.3909Z" fill="#2E7D32"/>
<path d="M88.091 63.632C89.218 58.689 87.143 56.909 85.874 56.328H71.272C67.233 56.703 64.962 59.31 64.334 60.175C61.823 64.627 56.979 67.715 51.563 67.715C46.027 67.715 41.23 64.487 38.77 59.874C37.91 58.808 35.699 56.665 32.062 56.328H15.828C14.558 56.909 12.484 58.688 13.611 63.632C13.633 63.736 13.643 63.812 13.664 63.909C18.352 80.046 33.241 91.887 50.867 91.887C68.41 91.887 83.232 80.154 87.997 64.134C88.028 63.965 88.047 63.819 88.091 63.632Z" fill="#F2F2F7"/>
</g>
<path d="M86.8752 17.6167C86.4836 17.7833 84.1086 19.7333 81.2502 22.2417C80.4919 22.9083 79.8586 23.475 79.8336 23.5C79.8086 23.525 79.4169 23.8833 78.9586 24.2917C77.6252 25.475 74.2752 28.6583 73.4586 29.5167C72.7002 30.3083 71.4502 31.725 69.0836 34.4583C68.3752 35.2833 67.6252 36.1417 67.4169 36.375C67.2086 36.6083 66.6086 37.3 66.0836 37.9167C65.5586 38.525 64.7169 39.5 64.2086 40.075C59.3669 45.6333 56.7169 48.825 53.7836 52.625C50.6336 56.7083 46.3502 62.4 44.3919 65.1083C39.2252 72.2417 39.0502 72.5083 34.5586 79.9583C34.1419 80.6417 33.6336 81.4833 33.4169 81.8167L33.0336 82.4167L32.2002 81.1083C31.2252 79.5833 28.9919 75.9417 26.2919 71.5C23.8086 67.4167 23.2252 66.4917 21.7086 64.25C19.1336 60.4417 17.2336 57.8 14.8836 54.7917C12.0919 51.2083 11.5336 50.6083 10.4002 50.0417C9.50856 49.6 9.4419 49.5917 8.1919 49.875C7.70023 49.9917 7.6169 50.5083 7.98356 51.2333C8.23356 51.75 9.00856 52.5833 9.23356 52.5833C9.40023 52.5833 9.4419 52.65 10.7252 54.7833C11.2586 55.65 12.3502 57.425 13.1669 58.7083C15.6752 62.6917 17.9502 66.5583 19.5502 69.5833C20.3752 71.1583 25.4502 81.3417 28.1669 86.875C28.7919 88.1583 29.4752 89.4917 29.6752 89.8333C29.8752 90.175 30.1752 90.7167 30.3336 91.0333C30.6752 91.7 31.1336 92.25 31.5669 92.5083C31.7336 92.6167 32.0836 92.8833 32.3336 93.1C32.8836 93.5917 33.1502 93.675 33.7252 93.5417C34.3669 93.3917 35.0002 92.975 35.9502 92.0667C37.3502 90.7417 38.3086 89.4167 41.5419 84.3333C44.6919 79.375 46.1086 77.375 52.2336 69.2083C58.2002 61.2583 60.8836 57.8583 65.1836 52.775C69.9502 47.1417 71.4336 45.3 74.7752 40.8417C78.0169 36.525 79.4336 34.375 81.9169 29.9917C83.2836 27.5833 85.5169 23.0833 86.1502 21.5C86.6669 20.1667 87.2669 18.4167 87.3586 17.9417C87.4252 17.5917 87.2336 17.4667 86.8752 17.6167Z" fill="black"/>
<defs>
<filter id="filter0_i_23_398" x="0" y="0" width="100" height="104" filterUnits="userSpaceOnUse" color-interpolation-filters="sRGB">
<feFlood flood-opacity="0" result="BackgroundImageFix"/>
<feBlend mode="normal" in="SourceGraphic" in2="BackgroundImageFix" result="shape"/>
<feColorMatrix in="SourceAlpha" type="matrix" values="0 0 0 0 0 0 0 0 0 0 0 0 0 0 0 0 0 0 127 0" result="hardAlpha"/>
<feOffset dy="4"/>
<feGaussianBlur stdDeviation="2"/>
<feComposite in2="hardAlpha" operator="arithmetic" k2="-1" k3="1"/>
<feColorMatrix type="matrix" values="0 0 0 0 0 0 0 0 0 0 0 0 0 0 0 0 0 0 0.25 0"/>
<feBlend mode="normal" in2="shape" result="effect1_innerShadow_23_398"/>
</filter>
</defs>
</svg>
