<svg width="103" height="108" viewBox="0 0 103 108" fill="none" xmlns="http://www.w3.org/2000/svg">
<g filter="url(#filter0_i_23_395)">
<path d="M46.507 53.104C46.507 57.617 50.158 61.269 54.67 61.269C59.183 61.269 62.834 57.617 62.834 53.104C62.834 48.593 59.183 44.941 54.67 44.941C50.158 44.941 46.507 48.594 46.507 53.104Z" fill="#F2F2F7"/>
<path d="M91.1 42.3909C86.439 26.209 71.526 14.325 53.868 14.325C36.145 14.325 21.181 26.291 16.577 42.56C15.244 48.908 19.293 49.8829 19.678 49.8829H34.14C39.17 49.8829 41.732 46.365 42.126 45.778C44.648 41.4629 49.358 38.4959 54.671 38.4959C59.95 38.4959 64.572 41.42 67.124 45.688L67.129 45.658C67.129 45.658 69.711 49.8839 75.196 49.8839H88.025C88.412 49.8829 92.553 48.9059 91.1 42.3909Z" fill="#C62828"/>
<path d="M91.091 63.632C92.218 58.689 90.143 56.909 88.874 56.328H74.272C70.233 56.703 67.962 59.31 67.334 60.175C64.823 64.627 59.979 67.715 54.563 67.715C49.027 67.715 44.23 64.487 41.77 59.874C40.91 58.808 38.699 56.665 35.062 56.328H18.828C17.558 56.909 15.484 58.688 16.611 63.632C16.633 63.736 16.643 63.812 16.664 63.909C21.352 80.046 36.241 91.887 53.867 91.887C71.41 91.887 86.232 80.154 90.997 64.134C91.028 63.965 91.047 63.819 91.091 63.632Z" fill="#F2F2F7"/>
</g>
<path d="M86.6833 14.4083C86.4333 14.6666 85.975 14.9916 85.4167 15.2916C84.3668 15.8667 83.6667 16.3333 82.175 17.4583C80.1583 18.9833 79.2 19.8667 74.625 24.45C72.15 26.9333 69.3167 29.7083 68.3333 30.625C65.2833 33.4667 63.4167 35.275 59.8333 38.875C54.8833 43.8417 53.025 45.6667 52.925 45.6667C52.8418 45.6667 51.0167 44.1333 47.0417 40.7167C45.8917 39.725 43.975 38.0333 43.2917 37.4083C40.9 35.2167 39.1583 33.5583 35.2083 29.7083C32.225 26.8 29.5667 24.2917 25.5 20.5333C22.8833 18.1167 21.7083 17.1 20.7417 16.425C20.1 15.9667 19.85 15.9167 19.2333 16.0917C18.9583 16.1667 18.9167 16.2083 18.9167 16.4333C18.9167 16.925 19.3417 17.5417 20.7083 19.0417C21.1667 19.5417 21.975 20.4417 22.5 21.0417C25.45 24.3917 27.9417 27.1417 34.1583 33.9167C36.6167 36.5833 41.1083 41.0833 44.125 43.8833C45.5 45.1583 47.2917 46.8333 48.1 47.6083L49.5833 49.0167L47.1833 51.4917C45.8667 52.85 44.3917 54.375 43.9167 54.875C43.4333 55.3833 41.9917 56.8833 40.7 58.2083C38.0167 60.975 37.175 61.8917 34.425 65.0333C30.5083 69.4917 27.6083 72.5667 25.1083 74.925C22.8833 77.025 21.675 78.2833 21.4 78.7917C20.975 79.6 20.7333 80.475 20.6833 81.4333C20.6333 82.55 20.7583 83.225 21.1333 83.8583C21.2917 84.125 21.4167 84.375 21.4167 84.4167C21.4167 84.4583 21.6417 84.6833 21.9083 84.9083C23.1 85.8917 24.5667 85.9667 25.9 85.1083C26.8 84.5332 32.1083 79.1 36.5917 74.1667C40.5917 69.7667 41.3418 68.9917 48.1083 62.25C52.1 58.2833 55.3833 55.0417 55.4167 55.0417C55.475 55.0417 56.9083 56.575 59 58.875C61.9083 62.075 63.275 63.4917 68.6667 68.9583C73.8333 74.1833 75.125 75.5417 77.8333 78.5833C80.4167 81.4833 81.8418 82.9667 83.4583 84.4167C83.6917 84.625 84.2 85.0833 84.6 85.4417C86.0833 86.7917 86.9917 87.425 87.5333 87.5C87.9917 87.5667 88.5 87.45 88.7333 87.225C88.9417 87.025 89.3418 86.2917 89.275 86.225C89.2583 86.2 89.3 86.0833 89.3833 85.9583C89.6 85.6333 89.6417 84.5833 89.4668 83.825C89.2917 83.0332 88.9918 82.5167 88.2333 81.7C87.3583 80.7582 86.3583 79.5833 85.0918 78C82.8667 75.2332 79.9833 72.2417 74.9167 67.4583C71.0833 63.8417 67.2917 60.0667 64.5833 57.1667C62.6333 55.0833 62.05 54.475 60.4417 52.8333C59.65 52.0333 59 51.3417 58.9918 51.3C58.9833 51.2667 59.525 50.65 60.1833 49.925C60.85 49.2083 61.725 48.25 62.125 47.7917C62.7918 47.0417 67.35 41.7333 67.9583 40.9917C68.1 40.825 69.1083 39.65 70.2083 38.375C73.7833 34.2417 74.9667 32.7833 77.5417 29.375C79.5417 26.7167 79.3167 27.0167 81.0167 24.875C81.8167 23.8667 83.0333 22.4 83.7168 21.625C86.0833 18.925 86.7668 18.0583 87.2917 17.0583C87.7668 16.1583 88 15.4416 88 14.875C88 14.4916 87.9668 14.375 87.7917 14.2083C87.4583 13.8666 87.1333 13.925 86.6833 14.4083Z" fill="black"/>
<defs>
<filter id="filter0_i_23_395" x="3" y="0" width="100" height="104" filterUnits="userSpaceOnUse" color-interpolation-filters="sRGB">
<feFlood flood-opacity="0" result="BackgroundImageFix"/>
<feBlend mode="normal" in="SourceGraphic" in2="BackgroundImageFix" result="shape"/>
<feColorMatrix in="SourceAlpha" type="matrix" values="0 0 0 0 0 0 0 0 0 0 0 0 0 0 0 0 0 0 127 0" result="hardAlpha"/>
<feOffset dy="4"/>
<feGaussianBlur stdDeviation="2"/>
<feComposite in2="hardAlpha" operator="arithmetic" k2="-1" k3="1"/>
<feColorMatrix type="matrix" values="0 0 0 0 0 0 0 0 0 0 0 0 0 0 0 0 0 0 0.25 0"/>
<feBlend mode="normal" in2="shape" result="effect1_innerShadow_23_395"/>
</filter>
</defs>
</svg>
