<svg width="102" height="103" viewBox="0 0 102 103" fill="none" xmlns="http://www.w3.org/2000/svg">
<g filter="url(#filter0_i_23_391)">
<path d="M45.507 53.104C45.507 57.617 49.158 61.269 53.67 61.269C58.183 61.269 61.834 57.617 61.834 53.104C61.834 48.593 58.183 44.941 53.67 44.941C49.158 44.941 45.507 48.594 45.507 53.104Z" fill="#F2F2F7"/>
<path d="M90.1 42.3909C85.439 26.209 70.526 14.325 52.868 14.325C35.145 14.325 20.181 26.291 15.577 42.56C14.244 48.908 18.293 49.8829 18.678 49.8829H33.14C38.17 49.8829 40.732 46.365 41.126 45.778C43.648 41.4629 48.358 38.4959 53.671 38.4959C58.95 38.4959 63.572 41.42 66.124 45.688L66.129 45.658C66.129 45.658 68.711 49.8839 74.196 49.8839H87.025C87.412 49.8829 91.553 48.9059 90.1 42.3909Z" fill="#E57373"/>
<path d="M90.091 63.632C91.218 58.689 89.143 56.909 87.874 56.328H73.272C69.233 56.703 66.962 59.31 66.334 60.175C63.823 64.627 58.979 67.715 53.563 67.715C48.027 67.715 43.23 64.487 40.77 59.874C39.91 58.808 37.699 56.665 34.062 56.328H17.828C16.558 56.909 14.484 58.688 15.611 63.632C15.633 63.736 15.643 63.812 15.664 63.909C20.352 80.046 35.241 91.887 52.867 91.887C70.41 91.887 85.232 80.154 89.997 64.134C90.028 63.965 90.047 63.819 90.091 63.632Z" fill="#F2F2F7"/>
</g>
<path d="M85.6833 14.4083C85.4333 14.6666 84.975 14.9916 84.4167 15.2916C83.3668 15.8667 82.6667 16.3333 81.175 17.4583C79.1583 18.9833 78.2 19.8667 73.625 24.45C71.15 26.9333 68.3167 29.7083 67.3333 30.625C64.2833 33.4667 62.4167 35.275 58.8333 38.875C53.8833 43.8417 52.025 45.6667 51.925 45.6667C51.8418 45.6667 50.0167 44.1333 46.0417 40.7167C44.8917 39.725 42.975 38.0333 42.2917 37.4083C39.9 35.2167 38.1583 33.5583 34.2083 29.7083C31.225 26.8 28.5667 24.2917 24.5 20.5333C21.8833 18.1167 20.7083 17.1 19.7417 16.425C19.1 15.9667 18.85 15.9167 18.2333 16.0917C17.9583 16.1667 17.9167 16.2083 17.9167 16.4333C17.9167 16.925 18.3417 17.5417 19.7083 19.0417C20.1667 19.5417 20.975 20.4417 21.5 21.0417C24.45 24.3917 26.9417 27.1417 33.1583 33.9167C35.6167 36.5833 40.1083 41.0833 43.125 43.8833C44.5 45.1583 46.2917 46.8333 47.1 47.6083L48.5833 49.0167L46.1833 51.4917C44.8667 52.85 43.3917 54.375 42.9167 54.875C42.4333 55.3833 40.9917 56.8833 39.7 58.2083C37.0167 60.975 36.175 61.8917 33.425 65.0333C29.5083 69.4917 26.6083 72.5667 24.1083 74.925C21.8833 77.025 20.675 78.2833 20.4 78.7917C19.975 79.6 19.7333 80.475 19.6833 81.4333C19.6333 82.55 19.7583 83.225 20.1333 83.8583C20.2917 84.125 20.4167 84.375 20.4167 84.4167C20.4167 84.4583 20.6417 84.6833 20.9083 84.9083C22.1 85.8917 23.5667 85.9667 24.9 85.1083C25.8 84.5332 31.1083 79.1 35.5917 74.1667C39.5917 69.7667 40.3418 68.9917 47.1083 62.25C51.1 58.2833 54.3833 55.0417 54.4167 55.0417C54.475 55.0417 55.9083 56.575 58 58.875C60.9083 62.075 62.275 63.4917 67.6667 68.9583C72.8333 74.1833 74.125 75.5417 76.8333 78.5833C79.4167 81.4833 80.8418 82.9667 82.4583 84.4167C82.6917 84.625 83.2 85.0833 83.6 85.4417C85.0833 86.7917 85.9917 87.425 86.5333 87.5C86.9917 87.5667 87.5 87.45 87.7333 87.225C87.9417 87.025 88.3418 86.2917 88.275 86.225C88.2583 86.2 88.3 86.0833 88.3833 85.9583C88.6 85.6333 88.6417 84.5833 88.4668 83.825C88.2917 83.0332 87.9918 82.5167 87.2333 81.7C86.3583 80.7582 85.3583 79.5833 84.0918 78C81.8667 75.2332 78.9833 72.2417 73.9167 67.4583C70.0833 63.8417 66.2917 60.0667 63.5833 57.1667C61.6333 55.0833 61.05 54.475 59.4417 52.8333C58.65 52.0333 58 51.3417 57.9918 51.3C57.9833 51.2667 58.525 50.65 59.1833 49.925C59.85 49.2083 60.725 48.25 61.125 47.7917C61.7918 47.0417 66.35 41.7333 66.9583 40.9917C67.1 40.825 68.1083 39.65 69.2083 38.375C72.7833 34.2417 73.9667 32.7833 76.5417 29.375C78.5417 26.7167 78.3167 27.0167 80.0167 24.875C80.8167 23.8667 82.0333 22.4 82.7168 21.625C85.0833 18.925 85.7668 18.0583 86.2917 17.0583C86.7668 16.1583 87 15.4416 87 14.875C87 14.4916 86.9668 14.375 86.7917 14.2083C86.4583 13.8666 86.1333 13.925 85.6833 14.4083Z" fill="black"/>
<defs>
<filter id="filter0_i_23_391" x="2" y="0" width="100" height="104" filterUnits="userSpaceOnUse" color-interpolation-filters="sRGB">
<feFlood flood-opacity="0" result="BackgroundImageFix"/>
<feBlend mode="normal" in="SourceGraphic" in2="BackgroundImageFix" result="shape"/>
<feColorMatrix in="SourceAlpha" type="matrix" values="0 0 0 0 0 0 0 0 0 0 0 0 0 0 0 0 0 0 127 0" result="hardAlpha"/>
<feOffset dy="4"/>
<feGaussianBlur stdDeviation="2"/>
<feComposite in2="hardAlpha" operator="arithmetic" k2="-1" k3="1"/>
<feColorMatrix type="matrix" values="0 0 0 0 0 0 0 0 0 0 0 0 0 0 0 0 0 0 0.25 0"/>
<feBlend mode="normal" in2="shape" result="effect1_innerShadow_23_391"/>
</filter>
</defs>
</svg>
