<svg width="109" height="109" viewBox="0 0 109 109" fill="none" xmlns="http://www.w3.org/2000/svg">
<g filter="url(#filter0_i_23_396)">
<path d="M52.507 53.104C52.507 57.617 56.158 61.269 60.67 61.269C65.183 61.269 68.834 57.617 68.834 53.104C68.834 48.593 65.183 44.941 60.67 44.941C56.158 44.941 52.507 48.594 52.507 53.104Z" fill="#F2F2F7"/>
<path d="M97.1 42.3909C92.439 26.209 77.526 14.325 59.868 14.325C42.145 14.325 27.181 26.291 22.577 42.56C21.244 48.908 25.293 49.8829 25.678 49.8829H40.14C45.17 49.8829 47.732 46.365 48.126 45.778C50.648 41.4629 55.358 38.4959 60.671 38.4959C65.95 38.4959 70.572 41.42 73.124 45.688L73.129 45.658C73.129 45.658 75.711 49.8839 81.196 49.8839H94.025C94.412 49.8829 98.553 48.9059 97.1 42.3909Z" fill="#FFF176"/>
<path d="M97.091 63.632C98.218 58.689 96.143 56.909 94.874 56.328H80.272C76.233 56.703 73.962 59.31 73.334 60.175C70.823 64.627 65.979 67.715 60.563 67.715C55.027 67.715 50.23 64.487 47.77 59.874C46.91 58.808 44.699 56.665 41.062 56.328H24.828C23.558 56.909 21.484 58.688 22.611 63.632C22.633 63.736 22.643 63.812 22.664 63.909C27.352 80.046 42.241 91.887 59.867 91.887C77.41 91.887 92.232 80.154 96.997 64.134C97.028 63.965 97.047 63.819 97.091 63.632Z" fill="#F2F2F7"/>
</g>
<path d="M62.167 9.72479C61.5253 10.1081 59.0753 12.0998 58.292 12.8665C57.7753 13.3831 56.7586 14.2165 53.417 16.8581C48.8586 20.4748 46.767 22.2998 41.5836 27.1998C40.2336 28.4831 38.467 30.1498 37.667 30.9081C32.3753 35.9081 30.992 37.2331 28.492 39.7414C26.9503 41.2831 25.5586 42.6498 25.3836 42.7748C25.042 43.0414 24.7086 43.5081 24.6336 43.8498C24.592 44.0331 24.6586 44.1664 25.0253 44.6164C25.2586 44.9081 25.5586 45.2998 25.6836 45.4831C25.8336 45.6998 26.0836 45.8914 26.4753 46.0914C26.7836 46.2414 27.267 46.5081 27.542 46.6748C28.5503 47.2831 29.0836 47.5081 29.742 47.5998C30.3753 47.6914 30.4086 47.6914 30.867 47.4664C31.1753 47.3164 31.4336 47.1081 31.592 46.8831C31.7336 46.6998 32.767 45.6414 33.9003 44.5414C35.6836 42.7998 37.2586 41.2081 42.042 36.2498C42.592 35.6748 43.9086 34.3081 44.9586 33.2081C46.0086 32.1081 47.3086 30.7581 47.842 30.2081C51.2836 26.6498 54.0336 23.5498 56.642 20.2914C57.3753 19.3748 58.0586 18.5331 58.1586 18.4164L58.342 18.2081L58.3003 21.0331C58.2503 23.7248 58.242 23.8748 58.0836 24.0414C57.792 24.3498 57.7503 24.7248 57.7503 26.8748C57.7503 28.8331 57.942 35.7914 58.042 37.4581C58.092 38.3081 57.9586 47.0498 57.8336 51.4581C57.692 56.4914 57.5836 58.8414 57.1253 67.2081C56.992 69.6414 56.8753 73.7498 56.7503 80.7081C56.6503 86.0165 56.5336 87.3665 56.117 87.9748C55.8586 88.3581 55.867 88.4415 56.192 88.8498C56.7586 89.5581 56.9836 89.7415 57.792 90.1665C58.2503 90.4081 58.667 90.6331 58.7086 90.6748C58.7586 90.7081 59.092 90.8248 59.4586 90.9248C60.167 91.1165 61.667 91.1665 62.0836 91.0165C62.2003 90.9748 62.4253 90.7165 62.6003 90.4498C63.0253 89.7748 64.042 87.7081 64.1753 87.2498C64.2586 86.9748 64.2836 86.1415 64.2836 83.9998C64.2836 81.4998 64.2586 80.9248 64.092 79.5831C63.9086 78.1415 63.892 77.6164 63.8336 71.4581C63.792 67.8331 63.7586 59.5498 63.742 53.0414C63.7253 46.5331 63.692 40.5331 63.667 39.7081C63.6253 38.3664 63.6586 37.6414 64.0586 32.7498C64.292 29.7498 64.592 25.8664 64.7086 24.1248C64.8253 22.3831 64.9503 20.6998 64.9836 20.3831L65.042 19.8164L66.9586 22.3414C68.017 23.7331 69.9753 26.2914 71.3253 28.0414C72.6753 29.7831 75.6503 33.6414 77.942 36.6248C85.167 46.0081 86.1086 47.1831 87.7586 48.7914C88.5836 49.5998 88.9336 49.8748 89.5836 50.2331C90.7753 50.8914 91.1753 51.0748 91.6586 51.1664C92.0336 51.2331 92.1586 51.2248 92.4503 51.0998C92.8836 50.8998 92.9586 50.8081 93.0836 50.2498C93.142 49.9998 93.2253 49.6581 93.2753 49.4998C93.3503 49.2331 93.4003 48.9164 93.542 47.9164C93.5836 47.5914 93.567 47.5081 93.3836 47.2998C93.267 47.1664 93.167 46.9914 93.167 46.9164C93.167 46.8414 93.067 46.5914 92.9503 46.3664C92.8253 46.1414 92.5503 45.5998 92.3253 45.1664C91.592 43.7081 90.7086 42.5331 84.792 35.1248C82.6336 32.4164 80.3086 29.4998 79.6253 28.6331C72.7836 19.9914 68.5253 14.7998 66.5836 12.7248C66.3753 12.4998 66.167 12.2415 66.1086 12.1415C65.9836 11.9081 64.2336 10.2581 63.8753 10.0415C63.7336 9.94979 63.517 9.80812 63.4086 9.73312C63.042 9.47479 62.592 9.46646 62.167 9.72479Z" fill="black"/>
<defs>
<filter id="filter0_i_23_396" x="9" y="0" width="100" height="104" filterUnits="userSpaceOnUse" color-interpolation-filters="sRGB">
<feFlood flood-opacity="0" result="BackgroundImageFix"/>
<feBlend mode="normal" in="SourceGraphic" in2="BackgroundImageFix" result="shape"/>
<feColorMatrix in="SourceAlpha" type="matrix" values="0 0 0 0 0 0 0 0 0 0 0 0 0 0 0 0 0 0 127 0" result="hardAlpha"/>
<feOffset dy="4"/>
<feGaussianBlur stdDeviation="2"/>
<feComposite in2="hardAlpha" operator="arithmetic" k2="-1" k3="1"/>
<feColorMatrix type="matrix" values="0 0 0 0 0 0 0 0 0 0 0 0 0 0 0 0 0 0 0.25 0"/>
<feBlend mode="normal" in2="shape" result="effect1_innerShadow_23_396"/>
</filter>
</defs>
</svg>
