<svg width="107" height="103" viewBox="0 0 107 103" fill="none" xmlns="http://www.w3.org/2000/svg">
<g filter="url(#filter0_i_23_393)">
<path d="M43.507 53.104C43.507 57.617 47.158 61.269 51.67 61.269C56.183 61.269 59.834 57.617 59.834 53.104C59.834 48.593 56.183 44.941 51.67 44.941C47.158 44.941 43.507 48.594 43.507 53.104Z" fill="#F2F2F7"/>
<path d="M88.1 42.3909C83.439 26.209 68.526 14.325 50.868 14.325C33.145 14.325 18.181 26.291 13.577 42.56C12.244 48.908 16.293 49.8829 16.678 49.8829H31.14C36.17 49.8829 38.732 46.365 39.126 45.778C41.648 41.4629 46.358 38.4959 51.671 38.4959C56.95 38.4959 61.572 41.42 64.124 45.688L64.129 45.658C64.129 45.658 66.711 49.8839 72.196 49.8839H85.025C85.412 49.8829 89.553 48.9059 88.1 42.3909Z" fill="#F9A825"/>
<path d="M88.091 63.632C89.218 58.689 87.143 56.909 85.874 56.328H71.272C67.233 56.703 64.962 59.31 64.334 60.175C61.823 64.627 56.979 67.715 51.563 67.715C46.027 67.715 41.23 64.487 38.77 59.874C37.91 58.808 35.699 56.665 32.062 56.328H15.828C14.558 56.909 12.484 58.688 13.611 63.632C13.633 63.736 13.643 63.812 13.664 63.909C18.352 80.046 33.241 91.887 50.867 91.887C68.41 91.887 83.232 80.154 87.997 64.134C88.028 63.965 88.047 63.819 88.091 63.632Z" fill="#F2F2F7"/>
</g>
<path d="M53.167 9.72479C52.5253 10.1081 50.0753 12.0998 49.292 12.8665C48.7753 13.3831 47.7586 14.2165 44.417 16.8581C39.8586 20.4748 37.767 22.2998 32.5836 27.1998C31.2336 28.4831 29.467 30.1498 28.667 30.9081C23.3753 35.9081 21.992 37.2331 19.492 39.7414C17.9503 41.2831 16.5586 42.6498 16.3836 42.7748C16.042 43.0414 15.7086 43.5081 15.6336 43.8498C15.592 44.0331 15.6586 44.1664 16.0253 44.6164C16.2586 44.9081 16.5586 45.2998 16.6836 45.4831C16.8336 45.6998 17.0836 45.8914 17.4753 46.0914C17.7836 46.2414 18.267 46.5081 18.542 46.6748C19.5503 47.2831 20.0836 47.5081 20.742 47.5998C21.3753 47.6914 21.4086 47.6914 21.867 47.4664C22.1753 47.3164 22.4336 47.1081 22.592 46.8831C22.7336 46.6998 23.767 45.6414 24.9003 44.5414C26.6836 42.7998 28.2586 41.2081 33.042 36.2498C33.592 35.6748 34.9086 34.3081 35.9586 33.2081C37.0086 32.1081 38.3086 30.7581 38.842 30.2081C42.2836 26.6498 45.0336 23.5498 47.642 20.2914C48.3753 19.3748 49.0586 18.5331 49.1586 18.4164L49.342 18.2081L49.3003 21.0331C49.2503 23.7248 49.242 23.8748 49.0836 24.0414C48.792 24.3498 48.7503 24.7248 48.7503 26.8748C48.7503 28.8331 48.942 35.7914 49.042 37.4581C49.092 38.3081 48.9586 47.0498 48.8336 51.4581C48.692 56.4914 48.5836 58.8414 48.1253 67.2081C47.992 69.6414 47.8753 73.7498 47.7503 80.7081C47.6503 86.0165 47.5336 87.3665 47.117 87.9748C46.8586 88.3581 46.867 88.4415 47.192 88.8498C47.7586 89.5581 47.9836 89.7415 48.792 90.1665C49.2503 90.4081 49.667 90.6331 49.7086 90.6748C49.7586 90.7081 50.092 90.8248 50.4586 90.9248C51.167 91.1165 52.667 91.1665 53.0836 91.0165C53.2003 90.9748 53.4253 90.7165 53.6003 90.4498C54.0253 89.7748 55.042 87.7081 55.1753 87.2498C55.2586 86.9748 55.2836 86.1415 55.2836 83.9998C55.2836 81.4998 55.2586 80.9248 55.092 79.5831C54.9086 78.1415 54.892 77.6164 54.8336 71.4581C54.792 67.8331 54.7586 59.5498 54.742 53.0414C54.7253 46.5331 54.692 40.5331 54.667 39.7081C54.6253 38.3664 54.6586 37.6414 55.0586 32.7498C55.292 29.7498 55.592 25.8664 55.7086 24.1248C55.8253 22.3831 55.9503 20.6998 55.9836 20.3831L56.042 19.8164L57.9586 22.3414C59.017 23.7331 60.9753 26.2914 62.3253 28.0414C63.6753 29.7831 66.6503 33.6414 68.942 36.6248C76.167 46.0081 77.1086 47.1831 78.7586 48.7914C79.5836 49.5998 79.9336 49.8748 80.5836 50.2331C81.7753 50.8914 82.1753 51.0748 82.6586 51.1664C83.0336 51.2331 83.1586 51.2248 83.4503 51.0998C83.8836 50.8998 83.9586 50.8081 84.0836 50.2498C84.142 49.9998 84.2253 49.6581 84.2753 49.4998C84.3503 49.2331 84.4003 48.9164 84.542 47.9164C84.5836 47.5914 84.567 47.5081 84.3836 47.2998C84.267 47.1664 84.167 46.9914 84.167 46.9164C84.167 46.8414 84.067 46.5914 83.9503 46.3664C83.8253 46.1414 83.5503 45.5998 83.3253 45.1664C82.592 43.7081 81.7086 42.5331 75.792 35.1248C73.6336 32.4164 71.3086 29.4998 70.6253 28.6331C63.7836 19.9914 59.5253 14.7998 57.5836 12.7248C57.3753 12.4998 57.167 12.2415 57.1086 12.1415C56.9836 11.9081 55.2336 10.2581 54.8753 10.0415C54.7336 9.94979 54.517 9.80812 54.4086 9.73312C54.042 9.47479 53.592 9.46646 53.167 9.72479Z" fill="black"/>
<defs>
<filter id="filter0_i_23_393" x="0" y="0" width="100" height="104" filterUnits="userSpaceOnUse" color-interpolation-filters="sRGB">
<feFlood flood-opacity="0" result="BackgroundImageFix"/>
<feBlend mode="normal" in="SourceGraphic" in2="BackgroundImageFix" result="shape"/>
<feColorMatrix in="SourceAlpha" type="matrix" values="0 0 0 0 0 0 0 0 0 0 0 0 0 0 0 0 0 0 127 0" result="hardAlpha"/>
<feOffset dy="4"/>
<feGaussianBlur stdDeviation="2"/>
<feComposite in2="hardAlpha" operator="arithmetic" k2="-1" k3="1"/>
<feColorMatrix type="matrix" values="0 0 0 0 0 0 0 0 0 0 0 0 0 0 0 0 0 0 0.25 0"/>
<feBlend mode="normal" in2="shape" result="effect1_innerShadow_23_393"/>
</filter>
</defs>
</svg>
