<svg width="107" height="103" viewBox="0 0 107 103" fill="none" xmlns="http://www.w3.org/2000/svg">
<g filter="url(#filter0_i_23_394)">
<path d="M43.507 53.104C43.507 57.617 47.158 61.269 51.67 61.269C56.183 61.269 59.834 57.617 59.834 53.104C59.834 48.593 56.183 44.941 51.67 44.941C47.158 44.941 43.507 48.594 43.507 53.104Z" fill="#F2F2F7"/>
<path d="M88.1 42.3909C83.439 26.209 68.526 14.325 50.868 14.325C33.145 14.325 18.181 26.291 13.577 42.56C12.244 48.908 16.293 49.8829 16.678 49.8829H31.14C36.17 49.8829 38.732 46.365 39.126 45.778C41.648 41.4629 46.358 38.4959 51.671 38.4959C56.95 38.4959 61.572 41.42 64.124 45.688L64.129 45.658C64.129 45.658 66.711 49.8839 72.196 49.8839H85.025C85.412 49.8829 89.553 48.9059 88.1 42.3909Z" fill="#F9A825"/>
<path d="M88.091 63.632C89.218 58.689 87.143 56.909 85.874 56.328H71.272C67.233 56.703 64.962 59.31 64.334 60.175C61.823 64.627 56.979 67.715 51.563 67.715C46.027 67.715 41.23 64.487 38.77 59.874C37.91 58.808 35.699 56.665 32.062 56.328H15.828C14.558 56.909 12.484 58.688 13.611 63.632C13.633 63.736 13.643 63.812 13.664 63.909C18.352 80.046 33.241 91.887 50.867 91.887C68.41 91.887 83.232 80.154 87.997 64.134C88.028 63.965 88.047 63.819 88.091 63.632Z" fill="#F2F2F7"/>
</g>
<path d="M51.417 9.40018C51.042 9.44185 49.9086 9.74185 49.792 9.82518C49.7503 9.86685 49.3336 10.0918 48.8753 10.3335C48.067 10.7585 47.842 10.9418 47.2753 11.6502C46.9503 12.0585 46.942 12.1418 47.2003 12.5252C47.617 13.1335 47.7336 14.4835 47.8336 19.7919C47.9586 26.7501 48.0753 30.8584 48.2086 33.2919C48.667 41.6584 48.7753 44.0084 48.917 49.0419C49.042 53.4502 49.1753 62.1919 49.1253 63.0419C49.0253 64.7086 48.8336 71.6669 48.8336 73.6252C48.8336 75.7751 48.8753 76.1502 49.167 76.4584C49.3253 76.6252 49.3336 76.7752 49.3836 79.4669L49.4253 82.2919L49.242 82.0834C49.142 81.9669 48.4586 81.1252 47.7253 80.2084C45.117 76.9502 42.367 73.8502 38.9253 70.2919C38.392 69.7419 37.092 68.3919 36.042 67.2919C34.992 66.1919 33.6753 64.8251 33.1253 64.2501C28.342 59.2919 26.767 57.7001 24.9836 55.9584C23.8503 54.8584 22.817 53.8002 22.6753 53.6169C22.517 53.3919 22.2586 53.1834 21.9503 53.0334C21.492 52.8084 21.4586 52.8084 20.8253 52.9001C20.167 52.9919 19.6336 53.2169 18.6253 53.8252C18.3503 53.9919 17.867 54.2584 17.5586 54.4084C17.167 54.6084 16.917 54.8002 16.767 55.0169C16.642 55.2001 16.342 55.5919 16.1086 55.8834C15.742 56.3334 15.6753 56.4669 15.717 56.6502C15.792 56.9919 16.1253 57.4586 16.467 57.7252C16.642 57.8502 18.0336 59.2169 19.5753 60.7586C22.0753 63.2669 23.4586 64.5919 28.7503 69.5919C29.5503 70.3502 31.317 72.0169 32.667 73.3002C37.8503 78.2002 39.942 80.0252 44.5003 83.6419C47.842 86.2834 48.8586 87.1169 49.3753 87.6334C50.2003 88.4419 52.6503 90.4251 53.2753 90.7834C53.6086 90.9752 53.7336 91.0002 54.0086 90.9584C54.192 90.9252 54.4503 90.8084 54.5753 90.7001C54.7086 90.5919 54.8586 90.5002 54.9003 90.5002C55.017 90.5002 57.0836 88.5669 57.2003 88.3502C57.2503 88.2584 57.4586 88.0002 57.667 87.7752C59.617 85.6919 63.867 80.5084 70.7086 71.8669C71.392 71.0002 73.717 68.0751 75.8753 65.3751C81.792 57.9669 82.6753 56.7919 83.4086 55.3334C83.6336 54.9002 83.9087 54.3584 84.0337 54.1334C84.1503 53.9084 84.2503 53.6584 84.2503 53.5834C84.2503 53.5084 84.3503 53.3334 84.467 53.2001C84.6503 52.9919 84.667 52.9084 84.6253 52.5834C84.4837 51.5834 84.4337 51.2669 84.3587 51.0001C84.3087 50.8419 84.2253 50.5001 84.167 50.2501C84.042 49.6919 83.967 49.6002 83.5336 49.4002C82.942 49.1419 82.4086 49.3001 80.667 50.2669C80.017 50.6251 79.667 50.9002 78.842 51.7084C77.192 53.3169 76.2503 54.4919 69.0253 63.8752C66.7336 66.8502 63.7586 70.7169 62.4086 72.4586C61.0586 74.2086 59.1003 76.7669 58.042 78.1584L56.1253 80.6834L56.067 80.1169C56.0336 79.8001 55.9086 78.1169 55.792 76.3752C55.6753 74.6334 55.3753 70.7502 55.142 67.7502C54.742 62.8586 54.7086 62.1336 54.7503 60.7919C54.7753 59.9669 54.8086 53.9669 54.8253 47.4584C54.842 40.9501 54.8753 32.6584 54.917 29.0419C54.9753 22.8834 54.992 22.3586 55.1753 20.9169C55.342 19.5751 55.367 19.0001 55.367 16.5001C55.367 14.3585 55.342 13.5252 55.2586 13.2502C55.1253 12.7918 54.1086 10.7252 53.6836 10.0502C53.5086 9.78351 53.3003 9.53351 53.2086 9.50018C52.992 9.42518 51.792 9.35851 51.417 9.40018Z" fill="black"/>
<defs>
<filter id="filter0_i_23_394" x="0" y="0" width="100" height="104" filterUnits="userSpaceOnUse" color-interpolation-filters="sRGB">
<feFlood flood-opacity="0" result="BackgroundImageFix"/>
<feBlend mode="normal" in="SourceGraphic" in2="BackgroundImageFix" result="shape"/>
<feColorMatrix in="SourceAlpha" type="matrix" values="0 0 0 0 0 0 0 0 0 0 0 0 0 0 0 0 0 0 127 0" result="hardAlpha"/>
<feOffset dy="4"/>
<feGaussianBlur stdDeviation="2"/>
<feComposite in2="hardAlpha" operator="arithmetic" k2="-1" k3="1"/>
<feColorMatrix type="matrix" values="0 0 0 0 0 0 0 0 0 0 0 0 0 0 0 0 0 0 0.25 0"/>
<feBlend mode="normal" in2="shape" result="effect1_innerShadow_23_394"/>
</filter>
</defs>
</svg>
