<svg width="109" height="109" viewBox="0 0 109 109" fill="none" xmlns="http://www.w3.org/2000/svg">
<g filter="url(#filter0_i_23_390)">
<path d="M52.507 53.104C52.507 57.617 56.158 61.269 60.67 61.269C65.183 61.269 68.834 57.617 68.834 53.104C68.834 48.593 65.183 44.941 60.67 44.941C56.158 44.941 52.507 48.594 52.507 53.104Z" fill="#F2F2F7"/>
<path d="M97.1 42.3909C92.439 26.209 77.526 14.325 59.868 14.325C42.145 14.325 27.181 26.291 22.577 42.56C21.244 48.908 25.293 49.8829 25.678 49.8829H40.14C45.17 49.8829 47.732 46.365 48.126 45.778C50.648 41.4629 55.358 38.4959 60.671 38.4959C65.95 38.4959 70.572 41.42 73.124 45.688L73.129 45.658C73.129 45.658 75.711 49.8839 81.196 49.8839H94.025C94.412 49.8829 98.553 48.9059 97.1 42.3909Z" fill="#FFF176"/>
<path d="M97.091 63.632C98.218 58.689 96.143 56.909 94.874 56.328H80.272C76.233 56.703 73.962 59.31 73.334 60.175C70.823 64.627 65.979 67.715 60.563 67.715C55.027 67.715 50.23 64.487 47.77 59.874C46.91 58.808 44.699 56.665 41.062 56.328H24.828C23.558 56.909 21.484 58.688 22.611 63.632C22.633 63.736 22.643 63.812 22.664 63.909C27.352 80.046 42.241 91.887 59.867 91.887C77.41 91.887 92.232 80.154 96.997 64.134C97.028 63.965 97.047 63.819 97.091 63.632Z" fill="#F2F2F7"/>
</g>
<path d="M60.417 9.40018C60.042 9.44185 58.9086 9.74185 58.792 9.82518C58.7503 9.86685 58.3336 10.0918 57.8753 10.3335C57.067 10.7585 56.842 10.9418 56.2753 11.6502C55.9503 12.0585 55.942 12.1418 56.2003 12.5252C56.617 13.1335 56.7336 14.4835 56.8336 19.7919C56.9586 26.7501 57.0753 30.8584 57.2086 33.2919C57.667 41.6584 57.7753 44.0084 57.917 49.0419C58.042 53.4502 58.1753 62.1919 58.1253 63.0419C58.0253 64.7086 57.8336 71.6669 57.8336 73.6252C57.8336 75.7751 57.8753 76.1502 58.167 76.4584C58.3253 76.6252 58.3336 76.7752 58.3836 79.4669L58.4253 82.2919L58.242 82.0834C58.142 81.9669 57.4586 81.1252 56.7253 80.2084C54.117 76.9502 51.367 73.8502 47.9253 70.2919C47.392 69.7419 46.092 68.3919 45.042 67.2919C43.992 66.1919 42.6753 64.8251 42.1253 64.2501C37.342 59.2919 35.767 57.7001 33.9836 55.9584C32.8503 54.8584 31.817 53.8002 31.6753 53.6169C31.517 53.3919 31.2586 53.1834 30.9503 53.0334C30.492 52.8084 30.4586 52.8084 29.8253 52.9001C29.167 52.9919 28.6336 53.2169 27.6253 53.8252C27.3503 53.9919 26.867 54.2584 26.5586 54.4084C26.167 54.6084 25.917 54.8002 25.767 55.0169C25.642 55.2001 25.342 55.5919 25.1086 55.8834C24.742 56.3334 24.6753 56.4669 24.717 56.6502C24.792 56.9919 25.1253 57.4586 25.467 57.7252C25.642 57.8502 27.0336 59.2169 28.5753 60.7586C31.0753 63.2669 32.4586 64.5919 37.7503 69.5919C38.5503 70.3502 40.317 72.0169 41.667 73.3002C46.8503 78.2002 48.942 80.0252 53.5003 83.6419C56.842 86.2834 57.8586 87.1169 58.3753 87.6334C59.2003 88.4419 61.6503 90.4251 62.2753 90.7834C62.6086 90.9752 62.7336 91.0002 63.0086 90.9584C63.192 90.9252 63.4503 90.8084 63.5753 90.7001C63.7086 90.5919 63.8586 90.5002 63.9003 90.5002C64.017 90.5002 66.0836 88.5669 66.2003 88.3502C66.2503 88.2584 66.4586 88.0002 66.667 87.7752C68.617 85.6919 72.867 80.5084 79.7086 71.8669C80.392 71.0002 82.717 68.0751 84.8753 65.3751C90.792 57.9669 91.6753 56.7919 92.4086 55.3334C92.6336 54.9002 92.9087 54.3584 93.0337 54.1334C93.1503 53.9084 93.2503 53.6584 93.2503 53.5834C93.2503 53.5084 93.3503 53.3334 93.467 53.2001C93.6503 52.9919 93.667 52.9084 93.6253 52.5834C93.4837 51.5834 93.4337 51.2669 93.3587 51.0001C93.3087 50.8419 93.2253 50.5001 93.167 50.2501C93.042 49.6919 92.967 49.6002 92.5336 49.4002C91.942 49.1419 91.4086 49.3001 89.667 50.2669C89.017 50.6251 88.667 50.9002 87.842 51.7084C86.192 53.3169 85.2503 54.4919 78.0253 63.8752C75.7336 66.8502 72.7586 70.7169 71.4086 72.4586C70.0586 74.2086 68.1003 76.7669 67.042 78.1584L65.1253 80.6834L65.067 80.1169C65.0336 79.8001 64.9086 78.1169 64.792 76.3752C64.6753 74.6334 64.3753 70.7502 64.142 67.7502C63.742 62.8586 63.7086 62.1336 63.7503 60.7919C63.7753 59.9669 63.8086 53.9669 63.8253 47.4584C63.842 40.9501 63.8753 32.6584 63.917 29.0419C63.9753 22.8834 63.992 22.3586 64.1753 20.9169C64.342 19.5751 64.367 19.0001 64.367 16.5001C64.367 14.3585 64.342 13.5252 64.2586 13.2502C64.1253 12.7918 63.1086 10.7252 62.6836 10.0502C62.5086 9.78351 62.3003 9.53351 62.2086 9.50018C61.992 9.42518 60.792 9.35851 60.417 9.40018Z" fill="black"/>
<defs>
<filter id="filter0_i_23_390" x="9" y="0" width="100" height="104" filterUnits="userSpaceOnUse" color-interpolation-filters="sRGB">
<feFlood flood-opacity="0" result="BackgroundImageFix"/>
<feBlend mode="normal" in="SourceGraphic" in2="BackgroundImageFix" result="shape"/>
<feColorMatrix in="SourceAlpha" type="matrix" values="0 0 0 0 0 0 0 0 0 0 0 0 0 0 0 0 0 0 127 0" result="hardAlpha"/>
<feOffset dy="4"/>
<feGaussianBlur stdDeviation="2"/>
<feComposite in2="hardAlpha" operator="arithmetic" k2="-1" k3="1"/>
<feColorMatrix type="matrix" values="0 0 0 0 0 0 0 0 0 0 0 0 0 0 0 0 0 0 0.25 0"/>
<feBlend mode="normal" in2="shape" result="effect1_innerShadow_23_390"/>
</filter>
</defs>
</svg>
